<?xml version="1.0" encoding="UTF-8" standalone="no"?>
<svg width="723px" height="444px" viewBox="0 0 723 444" version="1.1" xmlns="http://www.w3.org/2000/svg" xmlns:xlink="http://www.w3.org/1999/xlink" xmlns:sketch="http://www.bohemiancoding.com/sketch/ns">
    <!-- Generator: Sketch Beta 3.2.1 (9971) - http://www.bohemiancoding.com/sketch -->
    <title>88 &amp; 90 Logo + LEXINGTON AVENUE</title>
    <desc>Created with Sketch Beta.</desc>
    <defs>
        <path id="path-1" d="M0,329 L722,329 L722,2 L0,2"></path>
    </defs>
    <g id="Welcome" stroke="none" stroke-width="1" fill="none" fill-rule="evenodd" sketch:type="MSPage">
        <g id="Page-01" sketch:type="MSArtboardGroup" transform="translate(-918.000000, -457.000000)">
            <g id="88-&amp;-90-Logo-+-LEXINGTON-AVENUE" sketch:type="MSLayerGroup" transform="translate(918.000000, 455.000000)">
                <g id="88-&amp;-90-Logo">
                    <path d="M265.03923,188.627241 C265.03923,220.771589 303.470947,310.842232 345.271415,317.263778 C353.026531,318.452328 360.05478,319.122647 368,317.818623 C356.322595,324.411974 341.77686,329 319.358592,329 C232.232349,329 215,263.381932 215,233.79212 C215,190.460762 248.119993,167.10661 279.106911,146 C262.646159,169.252759 265.03923,188.627241 265.03923,188.627241 L265.03923,188.627241 Z M478,311.742849 C470.919769,321.351401 458.511146,329 436.886451,329 C411.794517,329 400.100645,316.846601 389.30091,302.955396 L388.193748,300.975759 C382.568244,292.716959 378.459132,284.72811 375.437561,278.668283 L298.903238,127.653447 C289.793677,103.36071 284.501723,97.3121303 285.037085,76.0057209 C285.777062,47.1885 306.095586,19.4567051 331.333273,10 C314.075561,30.5303016 339.557104,85.5495976 349.916777,103.36071 L428.659817,258.261709 L448.53828,293.419955 C457.460043,306.987782 467.233901,314.127412 478,311.742849 L478,311.742849 Z" id="Fill-1" fill="#DA224B" sketch:type="MSShapeGroup"></path>
                    <g id="Group-5">
                        <mask id="mask-2" sketch:name="Clip 3" fill="white">
                            <use xlink:href="#path-1"></use>
                        </mask>
                        <g id="Clip-3"></g>
                        <path d="M423,145.035979 C439.002829,149.203979 453.242446,162.643429 458.509765,182 C463.464616,163.451567 477.559158,149.649562 494,145 L423,145.035979" id="Fill-2" fill="#DA224B" sketch:type="MSShapeGroup" mask="url(#mask-2)"></path>
                        <path d="M368,2.88801358 C374.019398,4.47948507 380.109613,15.2156023 382.083976,19.1451615 C384.097995,23.0775276 386.055362,27.0828712 387.899422,31.1275104 C393.527914,43.2137119 397.142386,53.0628714 398.742837,60.6497276 C400.36595,68.2674588 399.881566,74.7091292 397.383162,80 C397.383162,80 426.131808,61.2588093 420.191724,33.0024715 C420.191724,33.0024715 414.693535,-4.15431795 368,2.88801358" id="Fill-4" fill="#DA224B" sketch:type="MSShapeGroup" mask="url(#mask-2)"></path>
                    </g>
                    <path d="M58,150.758531 C58,141.108082 50.1047088,134 39.3884607,134 C28.8924674,134 21,141.108082 21,150.758531 C21,160.661551 28.8924674,168 39.3884607,168 C50.1047088,168 58,160.661551 58,150.758531 L58,150.758531 Z M66,202.906713 C66,189.537502 56.1371387,180 40.3870557,180 C24.8402724,180 15,189.537502 15,202.906713 C15,216.287063 25.5094674,226 40.3870557,226 C55.4848854,226 66,216.287063 66,202.906713 L66,202.906713 Z M0,204.080972 C0,189.53984 9.13838445,178.865314 22.1763744,174.073414 C13.7005579,169.957258 7.16471801,162.128712 7.16471801,151.05603 C7.16471801,136.041035 20.0174136,123 39.3891041,123 C58.9825864,123 71.7987846,136.041035 71.7987846,151.05603 C71.7987846,162.128712 65.2769821,169.957258 56.5793738,174.073414 C69.8588081,178.865314 79,189.53984 79,204.080972 C79,223.203711 62.8793845,238 39.3891041,238 C16.3059099,238 0,223.203711 0,204.080972 L0,204.080972 Z" id="Fill-6" fill="#BD9456" sketch:type="MSShapeGroup"></path>
                    <path d="M161,150.758531 C161,141.108082 153.120867,134 142.379934,134 C131.879133,134 124,141.108082 124,150.758531 C124,160.661551 131.879133,168 142.379934,168 C153.120867,168 161,160.661551 161,150.758531 L161,150.758531 Z M169,202.906713 C169,189.537502 159.154625,180 143.388474,180 C127.842551,180 118,189.537502 118,202.906713 C118,216.287063 128.511709,226 143.388474,226 C158.505232,226 169,216.287063 169,202.906713 L169,202.906713 Z M103,204.080972 C103,189.53984 112.160519,178.865314 125.217697,174.073414 C116.72253,169.957258 110.184115,162.128712 110.184115,151.05603 C110.184115,136.041035 123.016702,123 142.390512,123 C161.983298,123 174.835537,136.041035 174.835537,151.05603 C174.835537,162.128712 168.297122,169.957258 159.582978,174.073414 C172.859133,178.865314 182,189.53984 182,204.080972 C182,223.203711 165.896802,238 142.390512,238 C119.324982,238 103,223.203711 103,204.080972 L103,204.080972 Z" id="Fill-7" fill="#BD9456" sketch:type="MSShapeGroup"></path>
                    <path d="M536,160.897024 C536,176.209805 546.383941,187 562.283371,187 C578.858341,187 589,175.118818 589,160.897024 C589,145.779062 578.616059,135 562.283371,135 C546.383941,135 536,145.779062 536,160.897024 L536,160.897024 Z M602,160.893821 C602,171.501186 597.18728,181.45781 589.086997,192.71871 L557.358067,236 L542.010461,236 L572.217058,194.67652 C568.726141,197.058848 563.67335,198.544661 558.6601,198.544661 C537.420865,198.544661 521,182.753707 521,161.114459 C521,138.799333 538.722898,123 561.275463,123 C583.850622,123 602,138.15697 602,160.893821 L602,160.893821 Z" id="Fill-8" fill="#BD9456" sketch:type="MSShapeGroup"></path>
                    <path d="M710,180.394418 C710,153.542929 697.615411,135 676.397318,135 C655.404555,135 643,153.542929 643,180.394418 C643,207.220569 655.404555,226 676.397318,226 C697.615411,226 710,207.220569 710,180.394418 L710,180.394418 Z M628,180.403267 C628,146.257954 647.663918,123 675.395734,123 C703.36708,123 723,146.257954 723,180.403267 C723,214.293429 703.36708,238 675.395734,238 C647.663918,238 628,214.293429 628,180.403267 L628,180.403267 Z" id="Fill-9" fill="#BD9456" sketch:type="MSShapeGroup"></path>
                </g>
                <path d="M130.492,444.316 C130.492,444.676 130.78,445 131.176,445 L143.992,445 C144.388,445 144.676,444.676 144.676,444.316 L144.676,442.336 C144.676,441.976 144.388,441.652 143.992,441.652 L134.236,441.652 L134.236,420.484 C134.236,420.124 133.912,419.8 133.552,419.8 L131.176,419.8 C130.78,419.8 130.492,420.124 130.492,420.484 L130.492,444.316 Z M155.956,444.316 C155.956,444.676 156.244,445 156.64,445 L171.04,445 C171.436,445 171.724,444.676 171.724,444.316 L171.724,442.336 C171.724,441.976 171.436,441.652 171.04,441.652 L159.664,441.652 L159.664,433.912 L169.276,433.912 C169.636,433.912 169.96,433.624 169.96,433.228 L169.96,431.212 C169.96,430.852 169.636,430.528 169.276,430.528 L159.664,430.528 L159.664,423.184 L171.04,423.184 C171.436,423.184 171.724,422.86 171.724,422.5 L171.724,420.484 C171.724,420.124 171.436,419.8 171.04,419.8 L156.64,419.8 C156.244,419.8 155.956,420.124 155.956,420.484 L155.956,444.316 Z M182.428,443.992 C182.14,444.46 182.428,445 183.076,445 L185.848,445 C186.136,445 186.352,444.82 186.46,444.676 L192.04,435.46 L192.112,435.46 L197.764,444.676 C197.836,444.82 198.088,445 198.376,445 L201.148,445 C201.76,445 202.048,444.496 201.76,443.992 L194.38,432.076 L201.508,420.808 C201.796,420.34 201.508,419.8 200.896,419.8 L197.836,419.8 C197.548,419.8 197.332,419.98 197.26,420.124 L192.112,428.728 L192.076,428.728 L187,420.124 C186.892,419.944 186.64,419.8 186.388,419.8 L183.328,419.8 C182.716,419.8 182.428,420.34 182.716,420.808 L189.844,432.076 L182.428,443.992 Z M214.048,444.316 C214.048,444.676 214.372,445 214.732,445 L217.108,445 C217.468,445 217.792,444.676 217.792,444.316 L217.792,420.484 C217.792,420.124 217.468,419.8 217.108,419.8 L214.732,419.8 C214.372,419.8 214.048,420.124 214.048,420.484 L214.048,444.316 Z M232.276,444.316 C232.276,444.676 232.6,445 232.96,445 L235.228,445 C235.624,445 235.912,444.676 235.912,444.316 L235.912,426.784 L235.948,426.784 L251.572,445.36 L252.508,445.36 C252.868,445.36 253.192,445.072 253.192,444.712 L253.192,420.484 C253.192,420.124 252.868,419.8 252.508,419.8 L250.204,419.8 C249.808,419.8 249.52,420.124 249.52,420.484 L249.52,437.512 L249.484,437.512 L233.86,419.44 L232.96,419.44 C232.6,419.44 232.276,419.728 232.276,420.088 L232.276,444.316 Z M265.84,432.436 C265.84,439.636 271.636,445.36 278.8,445.36 C284.02,445.36 287.728,442.984 287.728,442.984 C287.872,442.876 288.016,442.588 288.016,442.408 C288.016,439.528 287.98,436.576 287.98,433.696 C287.98,433.336 287.692,433.012 287.332,433.012 L280.78,433.012 C280.384,433.012 280.096,433.3 280.096,433.696 L280.096,435.784 C280.096,436.144 280.384,436.432 280.78,436.432 L284.308,436.432 L284.308,440.464 C283.948,440.608 281.896,441.688 278.908,441.688 C273.796,441.688 269.872,437.368 269.872,432.364 C269.872,427.324 273.796,423.004 278.908,423.004 C281.104,423.004 283.336,423.976 285.028,425.452 C285.388,425.776 285.676,425.812 285.964,425.488 C286.504,424.912 287.044,424.372 287.584,423.796 C287.872,423.508 287.836,423.076 287.548,422.788 C285.1,420.7 282.256,419.44 278.8,419.44 C271.636,419.44 265.84,425.236 265.84,432.436 L265.84,432.436 Z M304.624,444.316 C304.624,444.676 304.948,445 305.308,445 L307.684,445 C308.044,445 308.368,444.676 308.368,444.316 L308.368,423.184 L314.236,423.184 C314.632,423.184 314.92,422.86 314.92,422.5 L314.92,420.484 C314.92,420.124 314.632,419.8 314.236,419.8 L298.756,419.8 C298.36,419.8 298.072,420.124 298.072,420.484 L298.072,422.5 C298.072,422.86 298.36,423.184 298.756,423.184 L304.624,423.184 L304.624,444.316 Z M324.112,432.436 C324.112,439.636 329.836,445.36 337.036,445.36 C344.236,445.36 349.996,439.636 349.996,432.436 C349.996,425.236 344.236,419.44 337.036,419.44 C329.836,419.44 324.112,425.236 324.112,432.436 L324.112,432.436 Z M327.712,432.436 C327.712,427.324 331.924,423.04 337.036,423.04 C342.184,423.04 346.396,427.324 346.396,432.436 C346.396,437.584 342.184,441.76 337.036,441.76 C331.924,441.76 327.712,437.584 327.712,432.436 L327.712,432.436 Z M362.644,444.316 C362.644,444.676 362.968,445 363.328,445 L365.596,445 C365.992,445 366.28,444.676 366.28,444.316 L366.28,426.784 L366.316,426.784 L381.94,445.36 L382.876,445.36 C383.236,445.36 383.56,445.072 383.56,444.712 L383.56,420.484 C383.56,420.124 383.236,419.8 382.876,419.8 L380.572,419.8 C380.176,419.8 379.888,420.124 379.888,420.484 L379.888,437.512 L379.852,437.512 L364.228,419.44 L363.328,419.44 C362.968,419.44 362.644,419.728 362.644,420.088 L362.644,444.316 Z M410.692,445 L412.96,445 C413.392,445 413.68,444.712 413.788,444.46 C414.508,442.804 415.264,441.184 415.984,439.528 L427.756,439.528 L429.988,444.46 C430.132,444.784 430.384,445 430.816,445 L433.084,445 C433.624,445 433.912,444.532 433.696,444.064 L422.716,419.836 C422.608,419.62 422.284,419.44 422.104,419.44 L421.744,419.44 C421.564,419.44 421.24,419.62 421.132,419.836 L410.08,444.064 C409.864,444.532 410.152,445 410.692,445 L410.692,445 Z M417.388,436.432 L421.78,426.568 L421.96,426.568 L426.388,436.432 L417.388,436.432 Z M450.88,444.964 C450.988,445.18 451.24,445.36 451.492,445.36 L451.852,445.36 C452.14,445.36 452.356,445.18 452.464,444.964 L463.516,420.736 C463.732,420.268 463.444,419.8 462.904,419.8 L460.348,419.8 C460.024,419.8 459.808,420.016 459.736,420.196 L451.816,438.016 L451.6,438.016 L443.68,420.196 C443.608,420.016 443.356,419.8 443.068,419.8 L440.512,419.8 C439.972,419.8 439.684,420.268 439.9,420.736 L450.88,444.964 Z M474.652,444.316 C474.652,444.676 474.94,445 475.336,445 L489.736,445 C490.132,445 490.42,444.676 490.42,444.316 L490.42,442.336 C490.42,441.976 490.132,441.652 489.736,441.652 L478.36,441.652 L478.36,433.912 L487.972,433.912 C488.332,433.912 488.656,433.624 488.656,433.228 L488.656,431.212 C488.656,430.852 488.332,430.528 487.972,430.528 L478.36,430.528 L478.36,423.184 L489.736,423.184 C490.132,423.184 490.42,422.86 490.42,422.5 L490.42,420.484 C490.42,420.124 490.132,419.8 489.736,419.8 L475.336,419.8 C474.94,419.8 474.652,420.124 474.652,420.484 L474.652,444.316 Z M503.356,444.316 C503.356,444.676 503.68,445 504.04,445 L506.308,445 C506.704,445 506.992,444.676 506.992,444.316 L506.992,426.784 L507.028,426.784 L522.652,445.36 L523.588,445.36 C523.948,445.36 524.272,445.072 524.272,444.712 L524.272,420.484 C524.272,420.124 523.948,419.8 523.588,419.8 L521.284,419.8 C520.888,419.8 520.6,420.124 520.6,420.484 L520.6,437.512 L520.564,437.512 L504.94,419.44 L504.04,419.44 C503.68,419.44 503.356,419.728 503.356,420.088 L503.356,444.316 Z M538.432,435.604 C538.432,441.076 542.536,445.36 548.188,445.36 C553.876,445.36 558.016,441.076 558.016,435.604 L558.016,420.484 C558.016,420.124 557.692,419.8 557.332,419.8 L554.92,419.8 C554.524,419.8 554.236,420.124 554.236,420.484 L554.236,435.424 C554.236,438.988 551.896,441.76 548.188,441.76 C544.516,441.76 542.212,438.952 542.212,435.352 L542.212,420.484 C542.212,420.124 541.924,419.8 541.528,419.8 L539.116,419.8 C538.756,419.8 538.432,420.124 538.432,420.484 L538.432,435.604 Z M572.176,444.316 C572.176,444.676 572.464,445 572.86,445 L587.26,445 C587.656,445 587.944,444.676 587.944,444.316 L587.944,442.336 C587.944,441.976 587.656,441.652 587.26,441.652 L575.884,441.652 L575.884,433.912 L585.496,433.912 C585.856,433.912 586.18,433.624 586.18,433.228 L586.18,431.212 C586.18,430.852 585.856,430.528 585.496,430.528 L575.884,430.528 L575.884,423.184 L587.26,423.184 C587.656,423.184 587.944,422.86 587.944,422.5 L587.944,420.484 C587.944,420.124 587.656,419.8 587.26,419.8 L572.86,419.8 C572.464,419.8 572.176,420.124 572.176,420.484 L572.176,444.316 Z" id="LEXINGTON-AVENUE" fill="#CE9F52" sketch:type="MSShapeGroup"></path>
            </g>
        </g>
    </g>
</svg>